<svg xmlns="http://www.w3.org/2000/svg" viewBox="0 0 1600 760" fill="none">
  <defs>
    <linearGradient id="bg" x1="1600" x2="0" y1="0" y2="760" gradientUnits="userSpaceOnUse">
      <stop stop-color="#112846"/>
      <stop offset="1" stop-color="#1d436d"/>
    </linearGradient>
    <linearGradient id="orb" x1="1040" x2="1400" y1="130" y2="600" gradientUnits="userSpaceOnUse">
      <stop stop-color="#f7c85c" stop-opacity=".55"/>
      <stop offset="1" stop-color="#f28b1b" stop-opacity=".08"/>
    </linearGradient>
  </defs>
  <rect width="1600" height="760" rx="36" fill="url(#bg)"/>
  <circle cx="1210" cy="190" r="180" fill="url(#orb)"/>
  <circle cx="1480" cy="160" r="82" fill="#f28b1b" fill-opacity=".18"/>
  <circle cx="1456" cy="544" r="124" fill="#ffffff" fill-opacity=".06"/>
  <path d="M0 622c234-28 412-34 534-18 118 14 273 59 467 136H0V622Z" fill="#102338" fill-opacity=".72"/>

  <g font-family="Arial, sans-serif" fill="#fff">
    <text x="88" y="174" font-size="92" font-weight="300">Helcio</text>
    <text x="88" y="272" font-size="92" font-weight="700">Kronberg</text>
    <text x="90" y="338" font-size="42" font-weight="400" letter-spacing="2">LEILOEIRO PÚBLICO OFICIAL</text>
  </g>

  <g font-family="Arial, sans-serif" fill="#d2dfed" font-size="27" letter-spacing="1">
    <text x="90" y="468">JUCEPAR: 653</text>
    <text x="90" y="510">JUCESP: 1259</text>
    <text x="90" y="552">JUCEMS: 68</text>
    <text x="90" y="594">JUCESC: AARC/521</text>

    <text x="404" y="468">JUCERJA: 299</text>
    <text x="404" y="510">JUCIS-DF: 169</text>
    <text x="404" y="552">JUCEMT: 108</text>
    <text x="404" y="594">JUCIRS: 508</text>

    <text x="720" y="468">JUCESP: 120</text>
    <text x="720" y="510">JUCEG: 173/025</text>
    <text x="720" y="552">JUCEMG: 1460</text>
    <text x="720" y="594">JUCEB: 25/9609978</text>
  </g>

  <g transform="translate(845 96)">
    <circle cx="184" cy="184" r="162" fill="#f3bc57"/>
    <circle cx="184" cy="184" r="132" fill="#102338" stroke="#ffe8bb" stroke-width="10"/>
    <text x="184" y="116" fill="#102338" font-family="Arial, sans-serif" font-size="34" font-weight="700" text-anchor="middle">KRON LEILÕES</text>
    <text x="184" y="232" fill="#fff" font-family="Arial, sans-serif" font-size="94" font-weight="800" text-anchor="middle">25</text>
    <text x="184" y="294" fill="#fff" font-family="Arial, sans-serif" font-size="44" font-weight="700" text-anchor="middle">ANOS</text>
    <text x="184" y="356" fill="#102338" font-family="Arial, sans-serif" font-size="28" font-weight="700" text-anchor="middle">FUNDADA EM 27/06/2000</text>
  </g>

  <g transform="translate(828 460)">
    <text x="0" y="88" fill="#f28b1b" font-family="Arial, sans-serif" font-size="114" font-weight="700" letter-spacing="-2">KR</text>
    <text x="176" y="88" fill="#ffffff" font-family="Arial, sans-serif" font-size="114" font-weight="700" letter-spacing="-3">ON</text>
    <text x="178" y="144" fill="#ffffff" font-family="Arial, sans-serif" font-size="44" font-weight="700" letter-spacing="2">LEILÕES</text>
  </g>

  <g transform="translate(1260 118)">
    <circle cx="118" cy="98" r="78" fill="#efb578"/>
    <path d="M72 188c16-23 49-36 92-36 36 0 66 8 90 23 10 6 18 19 25 40l-17 150H8l19-124c8-28 23-46 45-53Z" fill="#0c1a29"/>
    <path d="M88 214c22-10 46-15 72-15 34 0 66 9 94 27l-10 79H48l12-61c5-16 14-27 28-30Z" fill="#15304d"/>
    <circle cx="92" cy="92" r="8" fill="#2b1a14"/>
    <circle cx="150" cy="92" r="8" fill="#2b1a14"/>
    <path d="M76 132c20 21 49 32 87 32 31 0 58-6 81-18" stroke="#b9754c" stroke-linecap="round" stroke-width="16"/>
    <path d="M308 198l26-47 51 28-26 47-18 10-12-7-21-5Z" fill="#7b4826"/>
    <path d="M380 136c18-2 33 1 46 10 7 5 12 14 13 26 1 12-3 23-13 32-8 7-20 12-34 14-16 2-30-1-42-10-9-7-13-16-13-28 0-14 4-24 13-31 8-6 18-11 30-13Z" fill="#8f572f"/>
    <path d="M22 304l18-16 56-92 34 28-56 92-23 5-29-17Z" fill="#efb578"/>
    <circle cx="67" cy="231" r="18" fill="#efb578"/>
    <circle cx="251" cy="140" r="18" fill="#efb578"/>
  </g>
</svg>
